<?xml version="1.0" standalone="no"?>
<!DOCTYPE svg PUBLIC "-//W3C//DTD SVG 20010904//EN"
 "http://www.w3.org/TR/2001/REC-SVG-20010904/DTD/svg10.dtd">
<svg version="1.0" xmlns="http://www.w3.org/2000/svg"
 width="128.000000pt" height="128.000000pt" viewBox="0 0 128.000000 128.000000"
 preserveAspectRatio="xMidYMid meet"
 data-icon="save" class="svg-inline--fa fa-save fa-w-14" role="img"
 >
 
<metadata>
Created by potrace 1.15, written by Peter Selinger 2001-2017
</metadata>
<g transform="translate(0.000000,128.000000) scale(0.100000,-0.100000)"
fill="#000000" stroke="none">
<path d="M302 834 c-1 -11 -10 -28 -20 -38 -16 -13 -24 -14 -53 -5 -19 7 -41
18 -50 25 -8 8 -18 14 -22 14 -18 0 -40 -72 -45 -146 -9 -147 50 -279 179
-398 64 -60 64 -65 -1 -17 -67 49 -74 51 -109 30 -41 -25 -75 -98 -68 -146 9
-51 44 -101 91 -126 40 -22 46 -22 466 -22 l425 0 45 25 c48 27 90 92 90 140
0 52 -42 113 -97 143 -37 20 -54 24 -59 16 -5 -8 -3 -9 7 -4 8 5 5 -1 -5 -13
-11 -12 -21 -20 -24 -17 -3 2 -22 -11 -44 -29 -43 -37 -146 -91 -193 -101 -16
-3 -5 5 27 18 90 39 140 71 194 129 121 128 179 306 140 433 l-12 40 -73 -4
c-64 -3 -75 -1 -97 20 l-24 22 0 -103 0 -103 55 6 c30 3 55 2 55 -2 0 -7 -84
-156 -178 -314 l-29 -49 -70 124 -70 123 -211 3 -212 2 -3 173 c-1 94 -4 163
-5 151z"/>
<path d="M350 678 l0 -128 175 0 c96 0 175 4 175 8 0 5 -7 17 -15 28 -28 37
-19 46 35 39 l50 -7 -1 64 c0 52 -2 59 -11 41 -10 -21 -18 -22 -147 -25 -125
-3 -139 -1 -177 19 -23 12 -51 37 -63 55 l-21 33 0 -127z"/>
<path d="M816 718 c-3 -29 -7 -71 -9 -93 -2 -38 -4 -40 -34 -40 -18 0 -33 -3
-33 -8 0 -18 133 -238 140 -230 13 16 130 223 130 230 0 5 -18 7 -40 5 l-40
-4 0 90 c0 50 -4 94 -10 97 -5 3 -10 -1 -10 -9 0 -8 -14 -25 -31 -37 -26 -18
-33 -19 -40 -8 -5 8 -8 24 -6 37 2 12 1 22 -4 22 -4 0 -10 -24 -13 -52z"/>

</g>
</svg>
